<svg xmlns="http://www.w3.org/2000/svg" viewBox="0 0 408 389"><defs><style>.cls-1{fill:#fff;}.cls-2{fill:none;stroke:#fff;stroke-miterlimit:10;stroke-width:17px;}</style></defs><title>phone</title><g id="Слой_2" data-name="Слой 2"><g id="Слой_1-2" data-name="Слой 1"><path class="cls-1" d="M296.53,126.79c-10,11.58-20.47,22.84-31.34,33.63-10.47,10.39-22.71,10.67-34,1.16-6.49-5.45-12.21-11.8-19.37-18.82-9.21,7.12-18,13.14-25.89,20.15-15.29,13.58-28.24,29.15-37.82,47.4-1.9,3.62-1.51,5.77,1.62,8.43a192.61,192.61,0,0,1,15.6,14.77c9.84,10.45,9.9,23.51.26,34.08q-14.13,15.52-28.61,30.73c-12,12.61-25.85,13-38.77,1.29C92.36,294.35,86.65,289,80.79,283.8c-11-9.73-14.86-22.14-13.7-36.38,2.36-28.9,14.78-54.1,29.89-78,20-31.7,45.3-57.8,75.93-78,0,0,0,.06,0,.09a7.37,7.37,0,1,1,5.84,13.51c-27.82,18.63-50.8,42.92-69.51,72C96.32,197.15,85.61,218.41,82,242.49c-1.64,11.1-.91,21.71,8,30,6.09,5.69,12.21,11.35,18.42,16.89,6.38,5.69,11.58,5.6,17.41-.56q14.44-15.24,28.51-30.83c5.29-5.84,5-10.56-.78-16S141.88,231.1,136,225.66c-6.18-5.76-6.77-9.23-3.4-16.77,8.64-19.31,21.61-35.48,36.38-50.33,11-11,23-20.8,37-27.76,6.9-3.42,10.6-2.62,16.18,2.74,5.88,5.65,11.75,11.34,17.85,16.76,5.46,4.84,10,4.91,14.95-.15q15.14-15.62,29.69-31.77c5.22-5.83,4.61-11.14-1.14-16.62C278,96.48,272.18,91.44,266.7,86.09a28.84,28.84,0,0,0-23.21-8.58,112.45,112.45,0,0,0-11.3,1.92,124.3,124.3,0,0,0-13.73,4.34A7.83,7.83,0,0,1,214.59,85a7.56,7.56,0,0,1-8.07-7,7.42,7.42,0,0,1,3.84-6.87l1.81-.73a109.52,109.52,0,0,1,25.1-6.84c14.9-2.1,28.08,1,39.16,11.66,5.89,5.65,12.14,10.93,18,16.6C304.89,101.91,306,115.85,296.53,126.79Z"/><path class="cls-1" d="M211.5,320.13c-3.41-.24-6.41-1.51-7.25-5.36s.34-7.1,4.18-8.58c3.08-1.18,6.43-1.66,9.59-2.68q73.35-23.7,88.09-99.38c.19-1,.24-2,.49-2.95,1.22-4.69,4.54-7,8.75-6.16a7.06,7.06,0,0,1,5.55,9.1c-3.57,12.77-6.16,26.07-11.66,38-19.12,41.46-51.57,67.19-96.07,77.64Z"/><path class="cls-1" d="M208,273.75c-4.15,0-7.07-1.6-7.82-5.65s1-7.12,5.06-8.57c5.92-2.14,12.16-3.63,17.71-6.48,20-10.31,32-27,36.57-48.93.2-1,.29-2,.51-2.95,1-4.69,4.36-7.26,8.44-6.55s6.54,4.17,5.87,8.92a84,84,0,0,1-62.1,69.34C210.81,273.26,209.33,273.49,208,273.75Z"/><path d="M212.17,70.42l-1.81.73A7.15,7.15,0,0,1,212.17,70.42Z"/><ellipse class="cls-2" cx="204" cy="194.5" rx="195.5" ry="186"/></g></g></svg>