<svg id="Слой_1" data-name="Слой 1" xmlns="http://www.w3.org/2000/svg" viewBox="0 0 1708 1629"><defs><style>.cls-1{fill:red;}</style></defs><title>phoneW</title><path class="cls-1" d="M838,6h37a17,17,0,0,0,3.3.72A881.63,881.63,0,0,1,1007.42,19c67.91,11.33,133.4,31,196.81,57.58,21.3,8.92,42.17,19,62.66,29.67,109.84,57.09,202,135.59,278.4,232.63,33.58,42.64,61.62,88.89,85.23,137.77,47.54,98.44,73.68,202.22,77.51,311.54.14,3.94.64,7.86,1,11.79v33a12.51,12.51,0,0,0-.71,2.8,753.79,753.79,0,0,1-15.41,136.75,766.2,766.2,0,0,1-67.47,194c-25.79,50.89-56,98.93-92.78,142.78-24.33,29-49.42,57.24-77.07,83.12-77.51,72.54-165.19,129.16-263.79,168.91-97.92,39.48-199.46,61.31-305,64.62-3.94.12-7.86.64-11.79,1H838a22.19,22.19,0,0,0-3.8-.72,860.74,860.74,0,0,1-111.87-9.57A875.81,875.81,0,0,1,512,1557.81c-136-56.93-249.23-144.19-340.84-259.37C121.36,1235.86,83,1166.58,54.69,1091.76A766.07,766.07,0,0,1,5,843.85c-.12-3.62-.63-7.23-1-10.85q0-16.5,0-33a23.38,23.38,0,0,0,.72-3.86A756,756,0,0,1,19.14,665.29,765.73,765.73,0,0,1,87.37,466.8c25.6-50.6,55.55-98.41,92.08-142.05,24.52-29.29,49.77-57.82,77.64-83.94,77.47-72.59,165.12-129.25,263.7-169.05C619,32.11,720.84,10.19,826.71,7,830.48,6.84,834.24,6.33,838,6Zm18.47,1550.22a833.42,833.42,0,0,0,134.78-11c79.26-12.87,154.83-37.41,226.79-72.71,80.12-39.3,151.12-91.38,213.48-155.32a744,744,0,0,0,110.22-144.6c70.31-120.41,101.86-250.76,95.59-390.16a676.4,676.4,0,0,0-19.92-136.12c-17.34-68.43-43.41-133.16-80.53-193.51C1500.08,393,1457,338.38,1405.71,290.45a772.8,772.8,0,0,0-214-142.24A815.14,815.14,0,0,0,886.76,77.3,830.92,830.92,0,0,0,721.51,87.78a808.86,808.86,0,0,0-226.33,72.58C414.89,199.72,343.76,251.89,281.3,316A754.51,754.51,0,0,0,172.37,458.45C113.62,557.6,81.74,665.2,75.74,780.4a686.47,686.47,0,0,0,9.46,157.24c15.61,87.12,45.24,169,92.1,244.48,31.24,50.33,66.68,97.24,108.36,139.32q102,103,234.1,162.64Q680.5,1556.2,856.47,1556.22Z"/><path class="cls-1" d="M889.25,601.28q-8.21,6.23-16.34,12.41c-27.42,20.87-55.76,40.63-82.07,62.82-68.4,57.7-125.1,125.26-167,204.71-1.16,2.2-2.21,4.48-3.21,6.76-4.26,9.68-2.51,18.33,5.12,25.49,7.28,6.84,15.2,13,22.37,20,17.22,16.69,34.82,33.05,51.05,50.67,17.48,19,27.18,41.82,26.67,68.1-.5,25.46-10.6,47.33-27.4,65.91-27.47,30.4-55.37,60.42-83.35,90.35-16.37,17.51-33,34.86-50,51.68a103.53,103.53,0,0,1-37.93,23.59c-32,11.49-62.11,6.41-90-12-11.19-7.39-21.44-16.35-31.5-25.29-23.29-20.69-46.48-41.49-69.19-62.81C305.95,1155,289,1119.53,285,1077.84c-3.18-33.21,1.49-65.82,7.74-98.25,13.81-71.69,42-137.94,77.18-201.44C410.1,705.69,455.95,637.05,511,575,573.44,504.5,643.15,442.09,721.9,390.09c16-10.55,35.9-6.29,45,9.7,9,15.8,2.09,34.19-14.34,43.49-13.56,7.68-26.09,17.27-38.67,26.56-74.06,54.71-138,119.6-195,191.82A1068.83,1068.83,0,0,0,404.41,841c-26.46,52.21-46,106.9-55.95,164.8-4.31,25.22-6.92,50.46-1.82,75.94A108,108,0,0,0,380,1141.3q38.71,35.79,77.84,71.13a91.77,91.77,0,0,0,18.95,12.78c11.63,6,23.29,4.86,34.91-1.19,9.09-4.74,16.12-11.68,22.9-19q57.51-62.19,114.85-124.52a82.58,82.58,0,0,0,11.41-16.3c6.05-11.13,6.11-23-1.45-33.08s-16.7-19.37-25.91-28.19c-20.94-20-42.36-39.57-63.55-59.34-2.31-2.15-4.44-4.5-6.62-6.79-13.46-14.1-16.55-30.23-9.51-48.37,11.36-29.3,26.46-56.67,43.14-83.19,27.25-43.34,59.68-82.57,94.86-119.63,34.14-36,70.27-69.75,111.28-97.83,16.18-11.08,33.21-21,50.21-30.77a170.65,170.65,0,0,1,24.94-11.27c15.19-5.76,29.81-4,42.25,6.6,12.93,11,25,22.95,37.49,34.48,17.37,16.06,34.62,32.24,52.18,48.08,7,6.29,15,11.11,24.66,12.3,14.67,1.8,25.35-5.81,34.58-15.62q60.61-64.41,120.81-129.21c4.61-4.94,9.26-10,12.86-15.69,9.23-14.56,8.15-33.38-6.33-47.27-27.51-26.4-54.95-52.9-83-78.71-29.36-27-64.19-36.08-103.57-30.22A433.25,433.25,0,0,0,920.56,354c-7,2.63-13.44,6.4-21.3,6.33-15.11-.15-28.3-10.4-31.09-24.66-3-15.21,5.08-29.43,19.72-35.17,30-11.74,60.58-21.17,92.28-27,35.13-6.44,70.07-7.75,104.83,2.4,30.16,8.8,55.38,25.5,77.68,47.26,10.84,10.58,22.33,20.49,33.45,30.8,16,14.8,32.82,28.78,47.54,44.74,19.53,21.19,28.73,46.93,26.28,76.14-1.83,21.81-10.61,40.83-24.68,57.31-14.49,17-29,34-44.36,50.15q-44.63,47.12-90.25,93.3c-15.85,16.11-34.6,27.63-57.35,31.29-26.56,4.27-50.46-3.24-71.39-19-15.12-11.36-29-24.43-42.84-37.44C922.23,634.6,906.09,618,889.25,601.28Z"/><path class="cls-1" d="M1346.18,851.06c-1,3.8-2.51,10.25-4.29,16.63-10.26,36.84-18.84,74.25-31.23,110.35-23.78,69.3-61.36,131.16-110.36,185.47-79.91,88.57-179.68,144-295,172.37-9.47,2.33-18.78,5.62-28.81,2-9.34-3.38-14.77-9.61-18.3-18.89-7.07-18.58,6.15-34.82,21.8-38.89,16.4-4.26,32.85-8.58,48.87-14.06,74.24-25.39,141.86-62.33,199.66-116.07,25-23.23,46.67-49.24,66.62-76.9,42.59-59.05,67.53-125.55,83.87-195.76,2.37-10.2,3.82-20.6,6-30.84,2.88-13.27,9-24.4,23.37-27.61C1328.58,814.36,1346.69,828.36,1346.18,851.06Z"/><path class="cls-1" d="M1150.2,855.38c-2.42,10.76-5.52,28.15-10.26,45.07-16.41,58.47-46.47,109.15-89.51,151.9q-69.48,69-164.92,92c-9.38,2.26-18.74,3.43-27.92-.41-3.6-1.5-7.46-3.23-10.15-5.91-11.3-11.24-13.44-40.62,10.84-49,21.21-7.35,43-13.34,63.5-22.37,75-33.08,126.94-88.29,154-165.9,6.11-17.5,9.52-36,14.17-54,.66-2.57,1.12-5.21,1.95-7.72,5.47-16.6,18.19-24.69,34.36-21.93C1141.21,819.69,1150.36,831.72,1150.2,855.38Z"/></svg>